<mxfile host="app.diagrams.net" agent="Mozilla/5.0 (Windows NT 10.0; Win64; x64) AppleWebKit/537.36 (KHTML, like Gecko) Chrome/140.0.0.0 Safari/537.36 Edg/140.0.0.0" version="28.2.1">
  <diagram id="-kO0cXYH7oWvwQfxmc2B" name="ページ1">
    <mxGraphModel dx="1942" dy="188" grid="1" gridSize="10" guides="1" tooltips="1" connect="1" arrows="1" fold="1" page="1" pageScale="1" pageWidth="827" pageHeight="1169" math="0" shadow="0">
      <root>
        <mxCell id="0" />
        <mxCell id="1" parent="0" />
        <mxCell id="5P88BlKWPcNsFjXJfqE7-2" value="" style="shape=umlLifeline;perimeter=lifelinePerimeter;whiteSpace=wrap;html=1;container=1;dropTarget=0;collapsible=0;recursiveResize=0;outlineConnect=0;portConstraint=eastwest;newEdgeStyle={&quot;curved&quot;:0,&quot;rounded&quot;:0};participant=umlActor;" vertex="1" parent="1">
          <mxGeometry x="-1550" y="90" width="20" height="350" as="geometry" />
        </mxCell>
        <mxCell id="5P88BlKWPcNsFjXJfqE7-15" value="" style="html=1;points=[[0,0,0,0,5],[0,1,0,0,-5],[1,0,0,0,5],[1,1,0,0,-5]];perimeter=orthogonalPerimeter;outlineConnect=0;targetShapes=umlLifeline;portConstraint=eastwest;newEdgeStyle={&quot;curved&quot;:0,&quot;rounded&quot;:0};" vertex="1" parent="5P88BlKWPcNsFjXJfqE7-2">
          <mxGeometry x="5" y="70" width="10" height="90" as="geometry" />
        </mxCell>
        <mxCell id="5P88BlKWPcNsFjXJfqE7-22" value="" style="html=1;points=[[0,0,0,0,5],[0,1,0,0,-5],[1,0,0,0,5],[1,1,0,0,-5]];perimeter=orthogonalPerimeter;outlineConnect=0;targetShapes=umlLifeline;portConstraint=eastwest;newEdgeStyle={&quot;curved&quot;:0,&quot;rounded&quot;:0};" vertex="1" parent="5P88BlKWPcNsFjXJfqE7-2">
          <mxGeometry x="5" y="210" width="10" height="130" as="geometry" />
        </mxCell>
        <mxCell id="5P88BlKWPcNsFjXJfqE7-4" value="システムメニュー" style="text;html=1;align=center;verticalAlign=middle;whiteSpace=wrap;rounded=0;" vertex="1" parent="1">
          <mxGeometry x="-1470" y="50" width="60" height="30" as="geometry" />
        </mxCell>
        <mxCell id="5P88BlKWPcNsFjXJfqE7-6" value="時刻入力&lt;div&gt;画面&lt;/div&gt;" style="text;html=1;align=center;verticalAlign=middle;whiteSpace=wrap;rounded=0;" vertex="1" parent="1">
          <mxGeometry x="-1330" y="50" width="60" height="30" as="geometry" />
        </mxCell>
        <mxCell id="5P88BlKWPcNsFjXJfqE7-8" value="時刻設定" style="text;html=1;align=center;verticalAlign=middle;whiteSpace=wrap;rounded=0;" vertex="1" parent="1">
          <mxGeometry x="-1198.12" y="50" width="60" height="30" as="geometry" />
        </mxCell>
        <mxCell id="5P88BlKWPcNsFjXJfqE7-10" value="RoboDog" style="text;html=1;align=center;verticalAlign=middle;whiteSpace=wrap;rounded=0;" vertex="1" parent="1">
          <mxGeometry x="-1050" y="50" width="60" height="30" as="geometry" />
        </mxCell>
        <mxCell id="5P88BlKWPcNsFjXJfqE7-11" value="" style="shape=umlLifeline;perimeter=lifelinePerimeter;whiteSpace=wrap;html=1;container=1;dropTarget=0;collapsible=0;recursiveResize=0;outlineConnect=0;portConstraint=eastwest;newEdgeStyle={&quot;curved&quot;:0,&quot;rounded&quot;:0};participant=umlBoundary;" vertex="1" parent="1">
          <mxGeometry x="-1470" y="90" width="50" height="350" as="geometry" />
        </mxCell>
        <mxCell id="5P88BlKWPcNsFjXJfqE7-16" value="" style="html=1;points=[[0,0,0,0,5],[0,1,0,0,-5],[1,0,0,0,5],[1,1,0,0,-5]];perimeter=orthogonalPerimeter;outlineConnect=0;targetShapes=umlLifeline;portConstraint=eastwest;newEdgeStyle={&quot;curved&quot;:0,&quot;rounded&quot;:0};" vertex="1" parent="5P88BlKWPcNsFjXJfqE7-11">
          <mxGeometry x="20" y="80" width="10" height="60" as="geometry" />
        </mxCell>
        <mxCell id="5P88BlKWPcNsFjXJfqE7-12" value="" style="shape=umlLifeline;perimeter=lifelinePerimeter;whiteSpace=wrap;html=1;container=1;dropTarget=0;collapsible=0;recursiveResize=0;outlineConnect=0;portConstraint=eastwest;newEdgeStyle={&quot;curved&quot;:0,&quot;rounded&quot;:0};participant=umlBoundary;" vertex="1" parent="1">
          <mxGeometry x="-1330" y="90" width="50" height="350" as="geometry" />
        </mxCell>
        <mxCell id="5P88BlKWPcNsFjXJfqE7-17" value="" style="html=1;points=[[0,0,0,0,5],[0,1,0,0,-5],[1,0,0,0,5],[1,1,0,0,-5]];perimeter=orthogonalPerimeter;outlineConnect=0;targetShapes=umlLifeline;portConstraint=eastwest;newEdgeStyle={&quot;curved&quot;:0,&quot;rounded&quot;:0};" vertex="1" parent="5P88BlKWPcNsFjXJfqE7-12">
          <mxGeometry x="20" y="90" width="10" height="40" as="geometry" />
        </mxCell>
        <mxCell id="5P88BlKWPcNsFjXJfqE7-23" value="" style="html=1;points=[[0,0,0,0,5],[0,1,0,0,-5],[1,0,0,0,5],[1,1,0,0,-5]];perimeter=orthogonalPerimeter;outlineConnect=0;targetShapes=umlLifeline;portConstraint=eastwest;newEdgeStyle={&quot;curved&quot;:0,&quot;rounded&quot;:0};" vertex="1" parent="5P88BlKWPcNsFjXJfqE7-12">
          <mxGeometry x="20" y="220" width="10" height="120" as="geometry" />
        </mxCell>
        <mxCell id="5P88BlKWPcNsFjXJfqE7-13" value="" style="shape=umlLifeline;perimeter=lifelinePerimeter;whiteSpace=wrap;html=1;container=1;dropTarget=0;collapsible=0;recursiveResize=0;outlineConnect=0;portConstraint=eastwest;newEdgeStyle={&quot;curved&quot;:0,&quot;rounded&quot;:0};participant=umlControl;" vertex="1" parent="1">
          <mxGeometry x="-1188.12" y="90" width="40" height="350" as="geometry" />
        </mxCell>
        <mxCell id="5P88BlKWPcNsFjXJfqE7-26" value="" style="html=1;points=[[0,0,0,0,5],[0,1,0,0,-5],[1,0,0,0,5],[1,1,0,0,-5]];perimeter=orthogonalPerimeter;outlineConnect=0;targetShapes=umlLifeline;portConstraint=eastwest;newEdgeStyle={&quot;curved&quot;:0,&quot;rounded&quot;:0};" vertex="1" parent="5P88BlKWPcNsFjXJfqE7-13">
          <mxGeometry x="15" y="230" width="10" height="90" as="geometry" />
        </mxCell>
        <mxCell id="5P88BlKWPcNsFjXJfqE7-14" value="" style="shape=umlLifeline;perimeter=lifelinePerimeter;whiteSpace=wrap;html=1;container=1;dropTarget=0;collapsible=0;recursiveResize=0;outlineConnect=0;portConstraint=eastwest;newEdgeStyle={&quot;curved&quot;:0,&quot;rounded&quot;:0};participant=umlEntity;" vertex="1" parent="1">
          <mxGeometry x="-1040" y="90" width="40" height="350" as="geometry" />
        </mxCell>
        <mxCell id="5P88BlKWPcNsFjXJfqE7-29" value="" style="html=1;points=[[0,0,0,0,5],[0,1,0,0,-5],[1,0,0,0,5],[1,1,0,0,-5]];perimeter=orthogonalPerimeter;outlineConnect=0;targetShapes=umlLifeline;portConstraint=eastwest;newEdgeStyle={&quot;curved&quot;:0,&quot;rounded&quot;:0};" vertex="1" parent="5P88BlKWPcNsFjXJfqE7-14">
          <mxGeometry x="15" y="235" width="10" height="45" as="geometry" />
        </mxCell>
        <mxCell id="5P88BlKWPcNsFjXJfqE7-18" value="" style="endArrow=classic;html=1;rounded=0;" edge="1" parent="1">
          <mxGeometry width="50" height="50" relative="1" as="geometry">
            <mxPoint x="-1535" y="170" as="sourcePoint" />
            <mxPoint x="-1450" y="170" as="targetPoint" />
          </mxGeometry>
        </mxCell>
        <mxCell id="5P88BlKWPcNsFjXJfqE7-19" value="" style="endArrow=classic;html=1;rounded=0;" edge="1" parent="1">
          <mxGeometry width="50" height="50" relative="1" as="geometry">
            <mxPoint x="-1440" y="180" as="sourcePoint" />
            <mxPoint x="-1310" y="180" as="targetPoint" />
          </mxGeometry>
        </mxCell>
        <mxCell id="5P88BlKWPcNsFjXJfqE7-20" value="時刻に応じた挨拶をクリック()" style="text;html=1;align=center;verticalAlign=middle;whiteSpace=wrap;rounded=0;" vertex="1" parent="1">
          <mxGeometry x="-1540" y="140" width="110" height="30" as="geometry" />
        </mxCell>
        <mxCell id="5P88BlKWPcNsFjXJfqE7-21" value="表示()" style="text;html=1;align=center;verticalAlign=middle;whiteSpace=wrap;rounded=0;" vertex="1" parent="1">
          <mxGeometry x="-1390" y="150" width="40" height="30" as="geometry" />
        </mxCell>
        <mxCell id="5P88BlKWPcNsFjXJfqE7-24" value="時刻を入力" style="text;html=1;align=center;verticalAlign=middle;whiteSpace=wrap;rounded=0;" vertex="1" parent="1">
          <mxGeometry x="-1450" y="290" width="110" height="10" as="geometry" />
        </mxCell>
        <mxCell id="5P88BlKWPcNsFjXJfqE7-25" value="" style="endArrow=classic;html=1;rounded=0;" edge="1" parent="1">
          <mxGeometry width="50" height="50" relative="1" as="geometry">
            <mxPoint x="-1535" y="310" as="sourcePoint" />
            <mxPoint x="-1310" y="310" as="targetPoint" />
          </mxGeometry>
        </mxCell>
        <mxCell id="5P88BlKWPcNsFjXJfqE7-27" value="" style="endArrow=classic;html=1;rounded=0;" edge="1" parent="1">
          <mxGeometry width="50" height="50" relative="1" as="geometry">
            <mxPoint x="-1300" y="320" as="sourcePoint" />
            <mxPoint x="-1173.12" y="320" as="targetPoint" />
          </mxGeometry>
        </mxCell>
        <mxCell id="5P88BlKWPcNsFjXJfqE7-28" value="起動()" style="text;html=1;align=center;verticalAlign=middle;whiteSpace=wrap;rounded=0;" vertex="1" parent="1">
          <mxGeometry x="-1290" y="300" width="110" height="10" as="geometry" />
        </mxCell>
        <mxCell id="5P88BlKWPcNsFjXJfqE7-30" value="" style="endArrow=classic;html=1;rounded=0;" edge="1" parent="1">
          <mxGeometry width="50" height="50" relative="1" as="geometry">
            <mxPoint x="-1163.12" y="325" as="sourcePoint" />
            <mxPoint x="-1025" y="325" as="targetPoint" />
          </mxGeometry>
        </mxCell>
        <mxCell id="5P88BlKWPcNsFjXJfqE7-31" value="時刻の設定" style="text;html=1;align=center;verticalAlign=middle;whiteSpace=wrap;rounded=0;" vertex="1" parent="1">
          <mxGeometry x="-1150" y="310" width="110" height="10" as="geometry" />
        </mxCell>
        <mxCell id="5P88BlKWPcNsFjXJfqE7-36" value="挨拶を返す" style="endArrow=open;endSize=12;dashed=1;html=1;rounded=0;" edge="1" parent="1">
          <mxGeometry width="160" relative="1" as="geometry">
            <mxPoint x="-1025" y="370.5" as="sourcePoint" />
            <mxPoint x="-1163.12" y="370.5" as="targetPoint" />
          </mxGeometry>
        </mxCell>
        <mxCell id="5P88BlKWPcNsFjXJfqE7-37" value="" style="shape=umlLifeline;perimeter=lifelinePerimeter;whiteSpace=wrap;html=1;container=1;dropTarget=0;collapsible=0;recursiveResize=0;outlineConnect=0;portConstraint=eastwest;newEdgeStyle={&quot;curved&quot;:0,&quot;rounded&quot;:0};participant=umlBoundary;" vertex="1" parent="1">
          <mxGeometry x="-950" y="90" width="50" height="350" as="geometry" />
        </mxCell>
        <mxCell id="5P88BlKWPcNsFjXJfqE7-39" value="" style="html=1;points=[[0,0,0,0,5],[0,1,0,0,-5],[1,0,0,0,5],[1,1,0,0,-5]];perimeter=orthogonalPerimeter;outlineConnect=0;targetShapes=umlLifeline;portConstraint=eastwest;newEdgeStyle={&quot;curved&quot;:0,&quot;rounded&quot;:0};" vertex="1" parent="5P88BlKWPcNsFjXJfqE7-37">
          <mxGeometry x="20" y="300" width="10" height="40" as="geometry" />
        </mxCell>
        <mxCell id="5P88BlKWPcNsFjXJfqE7-40" value="挨拶表示" style="text;html=1;align=center;verticalAlign=middle;whiteSpace=wrap;rounded=0;" vertex="1" parent="1">
          <mxGeometry x="-950" y="50" width="60" height="30" as="geometry" />
        </mxCell>
        <mxCell id="5P88BlKWPcNsFjXJfqE7-41" value="" style="endArrow=classic;html=1;rounded=0;" edge="1" parent="1" source="5P88BlKWPcNsFjXJfqE7-26" target="5P88BlKWPcNsFjXJfqE7-39">
          <mxGeometry width="50" height="50" relative="1" as="geometry">
            <mxPoint x="-1130" y="390" as="sourcePoint" />
            <mxPoint x="-941.8800000000001" y="390" as="targetPoint" />
          </mxGeometry>
        </mxCell>
        <mxCell id="5P88BlKWPcNsFjXJfqE7-43" value="表示()" style="text;html=1;align=center;verticalAlign=middle;whiteSpace=wrap;rounded=0;" vertex="1" parent="1">
          <mxGeometry x="-1020" y="400" width="110" height="10" as="geometry" />
        </mxCell>
      </root>
    </mxGraphModel>
  </diagram>
</mxfile>
